<?xml version="1.0" encoding="UTF-8"?>
<svg id="Layer_1" xmlns="http://www.w3.org/2000/svg" version="1.1" viewBox="0 0 2232 1790">
  <!-- Generator: Adobe Illustrator 29.7.1, SVG Export Plug-In . SVG Version: 2.1.1 Build 8)  -->
  <defs>
    <style>
      .st0 {
        stroke-width: 8px;
      }

      .st0, .st1, .st2, .st3 {
        fill: none;
        stroke: #fff;
      }

      .st1 {
        stroke-width: 7.89px;
      }

      .st4, .st5, .st6 {
        fill: #fff;
      }

      .st7 {
        fill: #cecece;
      }

      .st5, .st8, .st9 {
        fill-rule: evenodd;
      }

      .st10, .st8 {
        fill: #00ae55;
      }

      .st11 {
        display: none;
        fill: #37003c;
      }

      .st2 {
        stroke-width: 5px;
      }

      .st3 {
        stroke-width: 4px;
      }

      .st12, .st9 {
        fill: #01ba5c;
      }

      .st13 {
        opacity: .1;
      }

      .st13, .st14 {
        isolation: isolate;
      }

      .st14 {
        opacity: .1;
      }

      .st6 {
        stroke: #f0f0f0;
      }
    </style>
  </defs>
  <g>
    <polygon class="st12" points="425.53 57.92 -101.5 1790 2331.5 1790 1798.47 57.92 425.53 57.92"/>
    <polygon class="st8" points="106.28 1260.03 2114.87 1260.03 2185.5 1506 29.5 1506 106.28 1260.03"/>
    <polygon class="st9" points="157.48 1080.64 2063.78 1080.64 2116.39 1260.03 104.87 1260.03 157.48 1080.64"/>
    <polygon class="st8" points="205.39 917.28 2018.42 917.28 2068.55 1080.64 156.55 1080.64 205.39 917.28"/>
    <polygon class="st9" points="249.08 768.96 1973.39 768.96 2016.4 917.28 205.96 917.28 249.08 768.96"/>
    <polygon class="st8" points="286.29 633.66 1934.64 633.66 1974.08 768.96 249.96 768.96 286.29 633.66"/>
    <polygon class="st9" points="322.63 510.39 1898.56 510.39 1934.93 633.66 287.89 633.66 322.63 510.39"/>
    <polygon class="st8" points="356.42 398.14 1868.83 398.14 1901.86 510.39 323.86 510.39 356.42 398.14"/>
    <polygon class="st9" points="386.21 295.92 1836.02 295.92 1863.06 398.14 359.57 398.14 386.21 295.92"/>
    <polygon class="st10" points="413.25 202.72 1813.42 202.72 1839.52 295.92 387.52 295.92 413.25 202.72"/>
    <polygon class="st9" points="438.02 116.53 1785.77 116.53 1808.67 202.72 414.86 202.72 438.02 116.53"/>
    <polygon class="st9" points="438.02 116.53 1785.77 116.53 1808.67 202.72 414.86 202.72 438.02 116.53"/>
  </g>
  <g>
    <polygon class="st14" points="925.21 57.92 955.16 115.52 1269.63 115.52 1299.58 57.92 925.21 57.92"/>
    <g>
      <path class="st7" d="M965.69,4.79l7.2,4.11v8.22l-7.2,4.11-7.2-4.11v-8.22l7.2-4.11M965.69,3.79l-8,4.61v9.23l8,4.61,8-4.61v-9.23l-8-4.61h0Z"/>
      <path class="st7" d="M980.9,4.79l7.2,4.11v8.22l-7.2,4.11-7.2-4.11v-8.22l7.2-4.11M980.9,3.79l-8,4.61v9.23l8,4.61,8-4.61v-9.23l-8-4.61h0Z"/>
      <path class="st7" d="M996.1,4.79l7.2,4.11v8.22l-7.2,4.11-7.2-4.11v-8.22l7.2-4.11M996.1,3.79l-8,4.61v9.23l8,4.61,8-4.61v-9.23l-8-4.61h0Z"/>
      <path class="st7" d="M1011.31,4.79l7.2,4.11v8.22l-7.2,4.11-7.2-4.11v-8.22l7.2-4.11M1011.31,3.79l-8,4.61v9.23l8,4.61,8-4.61v-9.23l-8-4.61h0Z"/>
      <path class="st7" d="M1026.52,4.79l7.2,4.11v8.22l-7.2,4.11-7.2-4.11v-8.22l7.2-4.11M1026.52,3.79l-8,4.61v9.23l8,4.61,8-4.61v-9.23l-8-4.61h0Z"/>
      <path class="st7" d="M1041.72,4.79l7.2,4.11v8.22l-7.2,4.11-7.2-4.11v-8.22l7.2-4.11M1041.72,3.79l-8,4.61v9.23l8,4.61,8-4.61v-9.23l-8-4.61h0Z"/>
      <path class="st7" d="M1056.93,4.79l7.2,4.11v8.22l-7.2,4.11-7.2-4.11v-8.22l7.2-4.11M1056.93,3.79l-8,4.61v9.23l8,4.61,8-4.61v-9.23l-8-4.61h0Z"/>
      <path class="st7" d="M1072.14,4.79l7.2,4.11v8.22l-7.2,4.11-7.2-4.11v-8.22l7.2-4.11M1072.14,3.79l-8,4.61v9.23l8,4.61,8-4.61v-9.23l-8-4.61h0Z"/>
      <path class="st7" d="M1087.34,4.79l7.2,4.11v8.22l-7.2,4.11-7.2-4.11v-8.22l7.2-4.11M1087.34,3.79l-8,4.61v9.23l8,4.61,8-4.61v-9.23l-8-4.61h0Z"/>
      <path class="st7" d="M1102.55,4.79l7.2,4.11v8.22l-7.2,4.11-7.2-4.11v-8.22l7.2-4.11M1102.55,3.79l-8,4.61v9.23l8,4.61,8-4.61v-9.23l-8-4.61h0Z"/>
      <path class="st7" d="M1117.75,4.79l7.2,4.11v8.22l-7.2,4.11-7.2-4.11v-8.22l7.2-4.11M1117.75,3.79l-8,4.61v9.23l8,4.61,8-4.61v-9.23l-8-4.61h0Z"/>
      <path class="st7" d="M1132.96,4.79l7.2,4.11v8.22l-7.2,4.11-7.2-4.11v-8.22l7.2-4.11M1132.96,3.79l-8,4.61v9.23l8,4.61,8-4.61v-9.23l-8-4.61h0Z"/>
      <path class="st7" d="M1148.17,4.79l7.2,4.11v8.22l-7.2,4.11-7.2-4.11v-8.22l7.2-4.11M1148.17,3.79l-8,4.61v9.23l8,4.61,8-4.61v-9.23l-8-4.61h0Z"/>
      <path class="st7" d="M1163.37,4.79l7.2,4.11v8.22l-7.2,4.11-7.2-4.11v-8.22l7.2-4.11M1163.37,3.79l-8,4.61v9.23l8,4.61,8-4.61v-9.23l-8-4.61h0Z"/>
      <path class="st7" d="M1178.58,4.79l7.2,4.11v8.22l-7.2,4.11-7.2-4.11v-8.22l7.2-4.11M1178.58,3.79l-8,4.61v9.23l8,4.61,8-4.61v-9.23l-8-4.61h0Z"/>
      <path class="st7" d="M1193.79,4.79l7.2,4.11v8.22l-7.2,4.11-7.2-4.11v-8.22l7.2-4.11M1193.79,3.79l-8,4.61v9.23l8,4.61,8-4.61v-9.23l-8-4.61h0Z"/>
      <path class="st7" d="M1208.99,4.79l7.2,4.11v8.22l-7.2,4.11-7.2-4.11v-8.22l7.2-4.11M1208.99,3.79l-8,4.61v9.23l8,4.61,8-4.61v-9.23l-8-4.61h0Z"/>
      <path class="st7" d="M1224.2,4.79l7.2,4.11v8.22l-7.2,4.11-7.2-4.11v-8.22l7.2-4.11M1224.2,3.79l-8,4.61v9.23l8,4.61,8-4.61v-9.23l-8-4.61h0Z"/>
      <path class="st7" d="M1239.41,4.79l7.2,4.11v8.22l-7.2,4.11-7.2-4.11v-8.22l7.2-4.11M1239.41,3.79l-8,4.61v9.23l8,4.61,8-4.61v-9.23l-8-4.61h0Z"/>
      <path class="st7" d="M1254.61,4.79l7.2,4.11v8.22l-7.2,4.11-7.2-4.11v-8.22l7.2-4.11M1254.61,3.79l-8,4.61v9.23l8,4.61,8-4.61v-9.23l-8-4.61h0Z"/>
      <g>
        <path class="st7" d="M973.29,18.22l7.2,4.11v8.22l-7.2,4.11-7.2-4.11v-8.22l7.2-4.11M973.29,17.29l-8,4.61v9.23l8,4.61,8-4.61v-9.23l-8-4.61h0Z"/>
        <path class="st7" d="M988.5,18.22l7.2,4.11v8.22l-7.2,4.11-7.2-4.11v-8.22l7.2-4.11M988.5,17.29l-8,4.61v9.23l8,4.61,8-4.61v-9.23l-8-4.61h0Z"/>
        <path class="st7" d="M1003.71,18.22l7.2,4.11v8.22l-7.2,4.11-7.2-4.11v-8.22l7.2-4.11M1003.71,17.29l-8,4.61v9.23l8,4.61,8-4.61v-9.23l-8-4.61h0Z"/>
        <path class="st7" d="M1018.91,18.22l7.2,4.11v8.22l-7.2,4.11-7.2-4.11v-8.22l7.2-4.11M1018.91,17.29l-8,4.61v9.23l8,4.61,8-4.61v-9.23l-8-4.61h0Z"/>
        <path class="st7" d="M1034.12,18.22l7.2,4.11v8.22l-7.2,4.11-7.2-4.11v-8.22l7.2-4.11M1034.12,17.29l-8,4.61v9.23l8,4.61,8-4.61v-9.23l-8-4.61h0Z"/>
        <path class="st7" d="M1049.33,18.22l7.2,4.11v8.22l-7.2,4.11-7.2-4.11v-8.22l7.2-4.11M1049.33,17.29l-8,4.61v9.23l8,4.61,8-4.61v-9.23l-8-4.61h0Z"/>
        <path class="st7" d="M1064.53,18.22l7.2,4.11v8.22l-7.2,4.11-7.2-4.11v-8.22l7.2-4.11M1064.53,17.29l-8,4.61v9.23l8,4.61,8-4.61v-9.23l-8-4.61h0Z"/>
        <path class="st7" d="M1079.74,18.22l7.2,4.11v8.22l-7.2,4.11-7.2-4.11v-8.22l7.2-4.11M1079.74,17.29l-8,4.61v9.23l8,4.61,8-4.61v-9.23l-8-4.61h0Z"/>
        <path class="st7" d="M1094.94,18.22l7.2,4.11v8.22l-7.2,4.11-7.2-4.11v-8.22l7.2-4.11M1094.94,17.29l-8,4.61v9.23l8,4.61,8-4.61v-9.23l-8-4.61h0Z"/>
        <path class="st7" d="M1110.15,18.22l7.2,4.11v8.22l-7.2,4.11-7.2-4.11v-8.22l7.2-4.11M1110.15,17.29l-8,4.61v9.23l8,4.61,8-4.61v-9.23l-8-4.61h0Z"/>
        <path class="st7" d="M1125.36,18.22l7.2,4.11v8.22l-7.2,4.11-7.2-4.11v-8.22l7.2-4.11M1125.36,17.29l-8,4.61v9.23l8,4.61,8-4.61v-9.23l-8-4.61h0Z"/>
        <path class="st7" d="M1140.56,18.22l7.2,4.11v8.22l-7.2,4.11-7.2-4.11v-8.22l7.2-4.11M1140.56,17.29l-8,4.61v9.23l8,4.61,8-4.61v-9.23l-8-4.61h0Z"/>
        <path class="st7" d="M1155.77,18.22l7.2,4.11v8.22l-7.2,4.11-7.2-4.11v-8.22l7.2-4.11M1155.77,17.29l-8,4.61v9.23l8,4.61,8-4.61v-9.23l-8-4.61h0Z"/>
        <path class="st7" d="M1170.98,18.22l7.2,4.11v8.22l-7.2,4.11-7.2-4.11v-8.22l7.2-4.11M1170.98,17.29l-8,4.61v9.23l8,4.61,8-4.61v-9.23l-8-4.61h0Z"/>
        <path class="st7" d="M1186.18,18.22l7.2,4.11v8.22l-7.2,4.11-7.2-4.11v-8.22l7.2-4.11M1186.18,17.29l-8,4.61v9.23l8,4.61,8-4.61v-9.23l-8-4.61h0Z"/>
        <path class="st7" d="M1201.39,18.22l7.2,4.11v8.22l-7.2,4.11-7.2-4.11v-8.22l7.2-4.11M1201.39,17.29l-8,4.61v9.23l8,4.61,8-4.61v-9.23l-8-4.61h0Z"/>
        <path class="st7" d="M1216.6,18.22l7.2,4.11v8.22l-7.2,4.11-7.2-4.11v-8.22l7.2-4.11M1216.6,17.29l-8,4.61v9.23l8,4.61,8-4.61v-9.23l-8-4.61h0Z"/>
        <path class="st7" d="M1231.8,18.22l7.2,4.11v8.22l-7.2,4.11-7.2-4.11v-8.22l7.2-4.11M1231.8,17.29l-8,4.61v9.23l8,4.61,8-4.61v-9.23l-8-4.61h0Z"/>
        <path class="st7" d="M1247.01,18.22l7.2,4.11v8.22l-7.2,4.11-7.2-4.11v-8.22l7.2-4.11M1247.01,17.29l-8,4.61v9.23l8,4.61,8-4.61v-9.23l-8-4.61h0Z"/>
        <path class="st7" d="M1262.22,18.22l7.2,4.11v8.22l-7.2,4.11-7.2-4.11v-8.22l7.2-4.11M1262.22,17.29l-8,4.61v9.23l8,4.61,8-4.61v-9.23l-8-4.61h0Z"/>
      </g>
      <g>
        <path class="st7" d="M965.69,31.81l7.2,4.11v8.22l-7.2,4.11-7.2-4.11v-8.22l7.2-4.11M965.69,30.88l-8,4.61v9.23l8,4.61,8-4.61v-9.23l-8-4.61h0Z"/>
        <path class="st7" d="M980.9,31.81l7.2,4.11v8.22l-7.2,4.11-7.2-4.11v-8.22l7.2-4.11M980.9,30.88l-8,4.61v9.23l8,4.61,8-4.61v-9.23l-8-4.61h0Z"/>
        <path class="st7" d="M996.1,31.81l7.2,4.11v8.22l-7.2,4.11-7.2-4.11v-8.22l7.2-4.11M996.1,30.88l-8,4.61v9.23l8,4.61,8-4.61v-9.23l-8-4.61h0Z"/>
        <path class="st7" d="M1011.31,31.81l7.2,4.11v8.22l-7.2,4.11-7.2-4.11v-8.22l7.2-4.11M1011.31,30.88l-8,4.61v9.23l8,4.61,8-4.61v-9.23l-8-4.61h0Z"/>
        <path class="st7" d="M1026.52,31.81l7.2,4.11v8.22l-7.2,4.11-7.2-4.11v-8.22l7.2-4.11M1026.52,30.88l-8,4.61v9.23l8,4.61,8-4.61v-9.23l-8-4.61h0Z"/>
        <path class="st7" d="M1041.72,31.81l7.2,4.11v8.22l-7.2,4.11-7.2-4.11v-8.22l7.2-4.11M1041.72,30.88l-8,4.61v9.23l8,4.61,8-4.61v-9.23l-8-4.61h0Z"/>
        <path class="st7" d="M1056.93,31.81l7.2,4.11v8.22l-7.2,4.11-7.2-4.11v-8.22l7.2-4.11M1056.93,30.88l-8,4.61v9.23l8,4.61,8-4.61v-9.23l-8-4.61h0Z"/>
        <path class="st7" d="M1072.14,31.81l7.2,4.11v8.22l-7.2,4.11-7.2-4.11v-8.22l7.2-4.11M1072.14,30.88l-8,4.61v9.23l8,4.61,8-4.61v-9.23l-8-4.61h0Z"/>
        <path class="st7" d="M1087.34,31.81l7.2,4.11v8.22l-7.2,4.11-7.2-4.11v-8.22l7.2-4.11M1087.34,30.88l-8,4.61v9.23l8,4.61,8-4.61v-9.23l-8-4.61h0Z"/>
        <path class="st7" d="M1102.55,31.81l7.2,4.11v8.22l-7.2,4.11-7.2-4.11v-8.22l7.2-4.11M1102.55,30.88l-8,4.61v9.23l8,4.61,8-4.61v-9.23l-8-4.61h0Z"/>
        <path class="st7" d="M1117.75,31.81l7.2,4.11v8.22l-7.2,4.11-7.2-4.11v-8.22l7.2-4.11M1117.75,30.88l-8,4.61v9.23l8,4.61,8-4.61v-9.23l-8-4.61h0Z"/>
        <path class="st7" d="M1132.96,31.81l7.2,4.11v8.22l-7.2,4.11-7.2-4.11v-8.22l7.2-4.11M1132.96,30.88l-8,4.61v9.23l8,4.61,8-4.61v-9.23l-8-4.61h0Z"/>
        <path class="st7" d="M1148.17,31.81l7.2,4.11v8.22l-7.2,4.11-7.2-4.11v-8.22l7.2-4.11M1148.17,30.88l-8,4.61v9.23l8,4.61,8-4.61v-9.23l-8-4.61h0Z"/>
        <path class="st7" d="M1163.37,31.81l7.2,4.11v8.22l-7.2,4.11-7.2-4.11v-8.22l7.2-4.11M1163.37,30.88l-8,4.61v9.23l8,4.61,8-4.61v-9.23l-8-4.61h0Z"/>
        <path class="st7" d="M1178.58,31.81l7.2,4.11v8.22l-7.2,4.11-7.2-4.11v-8.22l7.2-4.11M1178.58,30.88l-8,4.61v9.23l8,4.61,8-4.61v-9.23l-8-4.61h0Z"/>
        <path class="st7" d="M1193.79,31.81l7.2,4.11v8.22l-7.2,4.11-7.2-4.11v-8.22l7.2-4.11M1193.79,30.88l-8,4.61v9.23l8,4.61,8-4.61v-9.23l-8-4.61h0Z"/>
        <path class="st7" d="M1208.99,31.81l7.2,4.11v8.22l-7.2,4.11-7.2-4.11v-8.22l7.2-4.11M1208.99,30.88l-8,4.61v9.23l8,4.61,8-4.61v-9.23l-8-4.61h0Z"/>
        <path class="st7" d="M1224.2,31.81l7.2,4.11v8.22l-7.2,4.11-7.2-4.11v-8.22l7.2-4.11M1224.2,30.88l-8,4.61v9.23l8,4.61,8-4.61v-9.23l-8-4.61h0Z"/>
        <path class="st7" d="M1239.41,31.81l7.2,4.11v8.22l-7.2,4.11-7.2-4.11v-8.22l7.2-4.11M1239.41,30.88l-8,4.61v9.23l8,4.61,8-4.61v-9.23l-8-4.61h0Z"/>
        <path class="st7" d="M1254.61,31.81l7.2,4.11v8.22l-7.2,4.11-7.2-4.11v-8.22l7.2-4.11M1254.61,30.88l-8,4.61v9.23l8,4.61,8-4.61v-9.23l-8-4.61h0Z"/>
      </g>
      <g>
        <path class="st7" d="M973.29,45.31l7.2,4.11v8.22l-7.2,4.11-7.2-4.11v-8.22l7.2-4.11M973.29,44.3l-8,4.61v9.23l8,4.61,8-4.61v-9.23l-8-4.61h0Z"/>
        <path class="st7" d="M988.5,45.31l7.2,4.11v8.22l-7.2,4.11-7.2-4.11v-8.22l7.2-4.11M988.5,44.3l-8,4.61v9.23l8,4.61,8-4.61v-9.23l-8-4.61h0Z"/>
        <path class="st7" d="M1003.71,45.31l7.2,4.11v8.22l-7.2,4.11-7.2-4.11v-8.22l7.2-4.11M1003.71,44.3l-8,4.61v9.23l8,4.61,8-4.61v-9.23l-8-4.61h0Z"/>
        <path class="st7" d="M1018.91,45.31l7.2,4.11v8.22l-7.2,4.11-7.2-4.11v-8.22l7.2-4.11M1018.91,44.3l-8,4.61v9.23l8,4.61,8-4.61v-9.23l-8-4.61h0Z"/>
        <path class="st7" d="M1034.12,45.31l7.2,4.11v8.22l-7.2,4.11-7.2-4.11v-8.22l7.2-4.11M1034.12,44.3l-8,4.61v9.23l8,4.61,8-4.61v-9.23l-8-4.61h0Z"/>
        <path class="st7" d="M1049.33,45.31l7.2,4.11v8.22l-7.2,4.11-7.2-4.11v-8.22l7.2-4.11M1049.33,44.3l-8,4.61v9.23l8,4.61,8-4.61v-9.23l-8-4.61h0Z"/>
        <path class="st7" d="M1064.53,45.31l7.2,4.11v8.22l-7.2,4.11-7.2-4.11v-8.22l7.2-4.11M1064.53,44.3l-8,4.61v9.23l8,4.61,8-4.61v-9.23l-8-4.61h0Z"/>
        <path class="st7" d="M1079.74,45.31l7.2,4.11v8.22l-7.2,4.11-7.2-4.11v-8.22l7.2-4.11M1079.74,44.3l-8,4.61v9.23l8,4.61,8-4.61v-9.23l-8-4.61h0Z"/>
        <path class="st7" d="M1094.94,45.31l7.2,4.11v8.22l-7.2,4.11-7.2-4.11v-8.22l7.2-4.11M1094.94,44.3l-8,4.61v9.23l8,4.61,8-4.61v-9.23l-8-4.61h0Z"/>
        <path class="st7" d="M1110.15,45.31l7.2,4.11v8.22l-7.2,4.11-7.2-4.11v-8.22l7.2-4.11M1110.15,44.3l-8,4.61v9.23l8,4.61,8-4.61v-9.23l-8-4.61h0Z"/>
        <path class="st7" d="M1125.36,45.31l7.2,4.11v8.22l-7.2,4.11-7.2-4.11v-8.22l7.2-4.11M1125.36,44.3l-8,4.61v9.23l8,4.61,8-4.61v-9.23l-8-4.61h0Z"/>
        <path class="st7" d="M1140.56,45.31l7.2,4.11v8.22l-7.2,4.11-7.2-4.11v-8.22l7.2-4.11M1140.56,44.3l-8,4.61v9.23l8,4.61,8-4.61v-9.23l-8-4.61h0Z"/>
        <path class="st7" d="M1155.77,45.31l7.2,4.11v8.22l-7.2,4.11-7.2-4.11v-8.22l7.2-4.11M1155.77,44.3l-8,4.61v9.23l8,4.61,8-4.61v-9.23l-8-4.61h0Z"/>
        <path class="st7" d="M1170.98,45.31l7.2,4.11v8.22l-7.2,4.11-7.2-4.11v-8.22l7.2-4.11M1170.98,44.3l-8,4.61v9.23l8,4.61,8-4.61v-9.23l-8-4.61h0Z"/>
        <path class="st7" d="M1186.18,45.31l7.2,4.11v8.22l-7.2,4.11-7.2-4.11v-8.22l7.2-4.11M1186.18,44.3l-8,4.61v9.23l8,4.61,8-4.61v-9.23l-8-4.61h0Z"/>
        <path class="st7" d="M1201.39,45.31l7.2,4.11v8.22l-7.2,4.11-7.2-4.11v-8.22l7.2-4.11M1201.39,44.3l-8,4.61v9.23l8,4.61,8-4.61v-9.23l-8-4.61h0Z"/>
        <path class="st7" d="M1216.6,45.31l7.2,4.11v8.22l-7.2,4.11-7.2-4.11v-8.22l7.2-4.11M1216.6,44.3l-8,4.61v9.23l8,4.61,8-4.61v-9.23l-8-4.61h0Z"/>
        <path class="st7" d="M1231.8,45.31l7.2,4.11v8.22l-7.2,4.11-7.2-4.11v-8.22l7.2-4.11M1231.8,44.3l-8,4.61v9.23l8,4.61,8-4.61v-9.23l-8-4.61h0Z"/>
        <path class="st7" d="M1247.01,45.31l7.2,4.11v8.22l-7.2,4.11-7.2-4.11v-8.22l7.2-4.11M1247.01,44.3l-8,4.61v9.23l8,4.61,8-4.61v-9.23l-8-4.61h0Z"/>
        <path class="st7" d="M1262.22,45.31l7.2,4.11v8.22l-7.2,4.11-7.2-4.11v-8.22l7.2-4.11M1262.22,44.3l-8,4.61v9.23l8,4.61,8-4.61v-9.23l-8-4.61h0Z"/>
      </g>
      <g>
        <path class="st7" d="M965.69,58.9l7.2,4.11v8.22l-7.2,4.11-7.2-4.11v-8.22l7.2-4.11M965.69,57.89l-8,4.61v9.23l8,4.61,8-4.61v-9.23l-8-4.61h0Z"/>
        <path class="st7" d="M980.9,58.9l7.2,4.11v8.22l-7.2,4.11-7.2-4.11v-8.22l7.2-4.11M980.9,57.89l-8,4.61v9.23l8,4.61,8-4.61v-9.23l-8-4.61h0Z"/>
        <path class="st7" d="M996.1,58.9l7.2,4.11v8.22l-7.2,4.11-7.2-4.11v-8.22l7.2-4.11M996.1,57.89l-8,4.61v9.23l8,4.61,8-4.61v-9.23l-8-4.61h0Z"/>
        <path class="st7" d="M1011.31,58.9l7.2,4.11v8.22l-7.2,4.11-7.2-4.11v-8.22l7.2-4.11M1011.31,57.89l-8,4.61v9.23l8,4.61,8-4.61v-9.23l-8-4.61h0Z"/>
        <path class="st7" d="M1026.52,58.9l7.2,4.11v8.22l-7.2,4.11-7.2-4.11v-8.22l7.2-4.11M1026.52,57.89l-8,4.61v9.23l8,4.61,8-4.61v-9.23l-8-4.61h0Z"/>
        <path class="st7" d="M1041.72,58.9l7.2,4.11v8.22l-7.2,4.11-7.2-4.11v-8.22l7.2-4.11M1041.72,57.89l-8,4.61v9.23l8,4.61,8-4.61v-9.23l-8-4.61h0Z"/>
        <path class="st7" d="M1056.93,58.9l7.2,4.11v8.22l-7.2,4.11-7.2-4.11v-8.22l7.2-4.11M1056.93,57.89l-8,4.61v9.23l8,4.61,8-4.61v-9.23l-8-4.61h0Z"/>
        <path class="st7" d="M1072.14,58.9l7.2,4.11v8.22l-7.2,4.11-7.2-4.11v-8.22l7.2-4.11M1072.14,57.89l-8,4.61v9.23l8,4.61,8-4.61v-9.23l-8-4.61h0Z"/>
        <path class="st7" d="M1087.34,58.9l7.2,4.11v8.22l-7.2,4.11-7.2-4.11v-8.22l7.2-4.11M1087.34,57.89l-8,4.61v9.23l8,4.61,8-4.61v-9.23l-8-4.61h0Z"/>
        <path class="st7" d="M1102.55,58.9l7.2,4.11v8.22l-7.2,4.11-7.2-4.11v-8.22l7.2-4.11M1102.55,57.89l-8,4.61v9.23l8,4.61,8-4.61v-9.23l-8-4.61h0Z"/>
        <path class="st7" d="M1117.75,58.9l7.2,4.11v8.22l-7.2,4.11-7.2-4.11v-8.22l7.2-4.11M1117.75,57.89l-8,4.61v9.23l8,4.61,8-4.61v-9.23l-8-4.61h0Z"/>
        <path class="st7" d="M1132.96,58.9l7.2,4.11v8.22l-7.2,4.11-7.2-4.11v-8.22l7.2-4.11M1132.96,57.89l-8,4.61v9.23l8,4.61,8-4.61v-9.23l-8-4.61h0Z"/>
        <path class="st7" d="M1148.17,58.9l7.2,4.11v8.22l-7.2,4.11-7.2-4.11v-8.22l7.2-4.11M1148.17,57.89l-8,4.61v9.23l8,4.61,8-4.61v-9.23l-8-4.61h0Z"/>
        <path class="st7" d="M1163.37,58.9l7.2,4.11v8.22l-7.2,4.11-7.2-4.11v-8.22l7.2-4.11M1163.37,57.89l-8,4.61v9.23l8,4.61,8-4.61v-9.23l-8-4.61h0Z"/>
        <path class="st7" d="M1178.58,58.9l7.2,4.11v8.22l-7.2,4.11-7.2-4.11v-8.22l7.2-4.11M1178.58,57.89l-8,4.61v9.23l8,4.61,8-4.61v-9.23l-8-4.61h0Z"/>
        <path class="st7" d="M1193.79,58.9l7.2,4.11v8.22l-7.2,4.11-7.2-4.11v-8.22l7.2-4.11M1193.79,57.89l-8,4.61v9.23l8,4.61,8-4.61v-9.23l-8-4.61h0Z"/>
        <path class="st7" d="M1208.99,58.9l7.2,4.11v8.22l-7.2,4.11-7.2-4.11v-8.22l7.2-4.11M1208.99,57.89l-8,4.61v9.23l8,4.61,8-4.61v-9.23l-8-4.61h0Z"/>
        <path class="st7" d="M1224.2,58.9l7.2,4.11v8.22l-7.2,4.11-7.2-4.11v-8.22l7.2-4.11M1224.2,57.89l-8,4.61v9.23l8,4.61,8-4.61v-9.23l-8-4.61h0Z"/>
        <path class="st7" d="M1239.41,58.9l7.2,4.11v8.22l-7.2,4.11-7.2-4.11v-8.22l7.2-4.11M1239.41,57.89l-8,4.61v9.23l8,4.61,8-4.61v-9.23l-8-4.61h0Z"/>
        <path class="st7" d="M1254.61,58.9l7.2,4.11v8.22l-7.2,4.11-7.2-4.11v-8.22l7.2-4.11M1254.61,57.89l-8,4.61v9.23l8,4.61,8-4.61v-9.23l-8-4.61h0Z"/>
      </g>
      <g>
        <path class="st7" d="M973.29,72.32l7.2,4.11v8.22l-7.2,4.11-7.2-4.11v-8.22l7.2-4.11M973.29,71.4l-8,4.61v9.23l8,4.61,8-4.61v-9.23l-8-4.61h0Z"/>
        <path class="st7" d="M988.5,72.32l7.2,4.11v8.22l-7.2,4.11-7.2-4.11v-8.22l7.2-4.11M988.5,71.4l-8,4.61v9.23l8,4.61,8-4.61v-9.23l-8-4.61h0Z"/>
        <path class="st7" d="M1003.71,72.32l7.2,4.11v8.22l-7.2,4.11-7.2-4.11v-8.22l7.2-4.11M1003.71,71.4l-8,4.61v9.23l8,4.61,8-4.61v-9.23l-8-4.61h0Z"/>
        <path class="st7" d="M1018.91,72.32l7.2,4.11v8.22l-7.2,4.11-7.2-4.11v-8.22l7.2-4.11M1018.91,71.4l-8,4.61v9.23l8,4.61,8-4.61v-9.23l-8-4.61h0Z"/>
        <path class="st7" d="M1034.12,72.32l7.2,4.11v8.22l-7.2,4.11-7.2-4.11v-8.22l7.2-4.11M1034.12,71.4l-8,4.61v9.23l8,4.61,8-4.61v-9.23l-8-4.61h0Z"/>
        <path class="st7" d="M1049.33,72.32l7.2,4.11v8.22l-7.2,4.11-7.2-4.11v-8.22l7.2-4.11M1049.33,71.4l-8,4.61v9.23l8,4.61,8-4.61v-9.23l-8-4.61h0Z"/>
        <path class="st7" d="M1064.53,72.32l7.2,4.11v8.22l-7.2,4.11-7.2-4.11v-8.22l7.2-4.11M1064.53,71.4l-8,4.61v9.23l8,4.61,8-4.61v-9.23l-8-4.61h0Z"/>
        <path class="st7" d="M1079.74,72.32l7.2,4.11v8.22l-7.2,4.11-7.2-4.11v-8.22l7.2-4.11M1079.74,71.4l-8,4.61v9.23l8,4.61,8-4.61v-9.23l-8-4.61h0Z"/>
        <path class="st7" d="M1094.94,72.32l7.2,4.11v8.22l-7.2,4.11-7.2-4.11v-8.22l7.2-4.11M1094.94,71.4l-8,4.61v9.23l8,4.61,8-4.61v-9.23l-8-4.61h0Z"/>
        <path class="st7" d="M1110.15,72.32l7.2,4.11v8.22l-7.2,4.11-7.2-4.11v-8.22l7.2-4.11M1110.15,71.4l-8,4.61v9.23l8,4.61,8-4.61v-9.23l-8-4.61h0Z"/>
        <path class="st7" d="M1125.36,72.32l7.2,4.11v8.22l-7.2,4.11-7.2-4.11v-8.22l7.2-4.11M1125.36,71.4l-8,4.61v9.23l8,4.61,8-4.61v-9.23l-8-4.61h0Z"/>
        <path class="st7" d="M1140.56,72.32l7.2,4.11v8.22l-7.2,4.11-7.2-4.11v-8.22l7.2-4.11M1140.56,71.4l-8,4.61v9.23l8,4.61,8-4.61v-9.23l-8-4.61h0Z"/>
        <path class="st7" d="M1155.77,72.32l7.2,4.11v8.22l-7.2,4.11-7.2-4.11v-8.22l7.2-4.11M1155.77,71.4l-8,4.61v9.23l8,4.61,8-4.61v-9.23l-8-4.61h0Z"/>
        <path class="st7" d="M1170.98,72.32l7.2,4.11v8.22l-7.2,4.11-7.2-4.11v-8.22l7.2-4.11M1170.98,71.4l-8,4.61v9.23l8,4.61,8-4.61v-9.23l-8-4.61h0Z"/>
        <path class="st7" d="M1186.18,72.32l7.2,4.11v8.22l-7.2,4.11-7.2-4.11v-8.22l7.2-4.11M1186.18,71.4l-8,4.61v9.23l8,4.61,8-4.61v-9.23l-8-4.61h0Z"/>
        <path class="st7" d="M1201.39,72.32l7.2,4.11v8.22l-7.2,4.11-7.2-4.11v-8.22l7.2-4.11M1201.39,71.4l-8,4.61v9.23l8,4.61,8-4.61v-9.23l-8-4.61h0Z"/>
        <path class="st7" d="M1216.6,72.32l7.2,4.11v8.22l-7.2,4.11-7.2-4.11v-8.22l7.2-4.11M1216.6,71.4l-8,4.61v9.23l8,4.61,8-4.61v-9.23l-8-4.61h0Z"/>
        <path class="st7" d="M1231.8,72.32l7.2,4.11v8.22l-7.2,4.11-7.2-4.11v-8.22l7.2-4.11M1231.8,71.4l-8,4.61v9.23l8,4.61,8-4.61v-9.23l-8-4.61h0Z"/>
        <path class="st7" d="M1247.01,72.32l7.2,4.11v8.22l-7.2,4.11-7.2-4.11v-8.22l7.2-4.11M1247.01,71.4l-8,4.61v9.23l8,4.61,8-4.61v-9.23l-8-4.61h0Z"/>
        <path class="st7" d="M1262.22,72.32l7.2,4.11v8.22l-7.2,4.11-7.2-4.11v-8.22l7.2-4.11M1262.22,71.4l-8,4.61v9.23l8,4.61,8-4.61v-9.23l-8-4.61h0Z"/>
      </g>
      <g>
        <path class="st7" d="M965.69,85.91l7.2,4.11v8.22l-7.2,4.11-7.2-4.11v-8.14l7.2-4.19M965.69,84.99l-8,4.61v9.23l8,4.61,8-4.61v-9.23l-8-4.61h0Z"/>
        <path class="st7" d="M980.9,85.91l7.2,4.11v8.22l-7.2,4.11-7.2-4.11v-8.14l7.2-4.19M980.9,84.99l-8,4.61v9.23l8,4.61,8-4.61v-9.23l-8-4.61h0Z"/>
        <path class="st7" d="M996.1,85.91l7.2,4.11v8.22l-7.2,4.11-7.2-4.11v-8.14l7.2-4.19M996.1,84.99l-8,4.61v9.23l8,4.61,8-4.61v-9.23l-8-4.61h0Z"/>
        <path class="st7" d="M1011.31,85.91l7.2,4.11v8.22l-7.2,4.11-7.2-4.11v-8.14l7.2-4.19M1011.31,84.99l-8,4.61v9.23l8,4.61,8-4.61v-9.23l-8-4.61h0Z"/>
        <path class="st7" d="M1026.52,85.91l7.2,4.11v8.22l-7.2,4.11-7.2-4.11v-8.14l7.2-4.19M1026.52,84.99l-8,4.61v9.23l8,4.61,8-4.61v-9.23l-8-4.61h0Z"/>
        <path class="st7" d="M1041.72,85.91l7.2,4.11v8.22l-7.2,4.11-7.2-4.11v-8.14l7.2-4.19M1041.72,84.99l-8,4.61v9.23l8,4.61,8-4.61v-9.23l-8-4.61h0Z"/>
        <path class="st7" d="M1056.93,85.91l7.2,4.11v8.22l-7.2,4.11-7.2-4.11v-8.14l7.2-4.19M1056.93,84.99l-8,4.61v9.23l8,4.61,8-4.61v-9.23l-8-4.61h0Z"/>
        <path class="st7" d="M1072.14,85.91l7.2,4.11v8.22l-7.2,4.11-7.2-4.11v-8.14l7.2-4.19M1072.14,84.99l-8,4.61v9.23l8,4.61,8-4.61v-9.23l-8-4.61h0Z"/>
        <path class="st7" d="M1087.34,85.91l7.2,4.11v8.22l-7.2,4.11-7.2-4.11v-8.14l7.2-4.19M1087.34,84.99l-8,4.61v9.23l8,4.61,8-4.61v-9.23l-8-4.61h0Z"/>
        <path class="st7" d="M1102.55,85.91l7.2,4.11v8.22l-7.2,4.11-7.2-4.11v-8.14l7.2-4.19M1102.55,84.99l-8,4.61v9.23l8,4.61,8-4.61v-9.23l-8-4.61h0Z"/>
        <path class="st7" d="M1117.75,85.91l7.2,4.11v8.22l-7.2,4.11-7.2-4.11v-8.14l7.2-4.19M1117.75,84.99l-8,4.61v9.23l8,4.61,8-4.61v-9.23l-8-4.61h0Z"/>
        <path class="st7" d="M1132.96,85.91l7.2,4.11v8.22l-7.2,4.11-7.2-4.11v-8.14l7.2-4.19M1132.96,84.99l-8,4.61v9.23l8,4.61,8-4.61v-9.23l-8-4.61h0Z"/>
        <path class="st7" d="M1148.17,85.91l7.2,4.11v8.22l-7.2,4.11-7.2-4.11v-8.14l7.2-4.19M1148.17,84.99l-8,4.61v9.23l8,4.61,8-4.61v-9.23l-8-4.61h0Z"/>
        <path class="st7" d="M1163.37,85.91l7.2,4.11v8.22l-7.2,4.11-7.2-4.11v-8.14l7.2-4.19M1163.37,84.99l-8,4.61v9.23l8,4.61,8-4.61v-9.23l-8-4.61h0Z"/>
        <path class="st7" d="M1178.58,85.91l7.2,4.11v8.22l-7.2,4.11-7.2-4.11v-8.14l7.2-4.19M1178.58,84.99l-8,4.61v9.23l8,4.61,8-4.61v-9.23l-8-4.61h0Z"/>
        <path class="st7" d="M1193.79,85.91l7.2,4.11v8.22l-7.2,4.11-7.2-4.11v-8.14l7.2-4.19M1193.79,84.99l-8,4.61v9.23l8,4.61,8-4.61v-9.23l-8-4.61h0Z"/>
        <path class="st7" d="M1208.99,85.91l7.2,4.11v8.22l-7.2,4.11-7.2-4.11v-8.14l7.2-4.19M1208.99,84.99l-8,4.61v9.23l8,4.61,8-4.61v-9.23l-8-4.61h0Z"/>
        <path class="st7" d="M1224.2,85.91l7.2,4.11v8.22l-7.2,4.11-7.2-4.11v-8.14l7.2-4.19M1224.2,84.99l-8,4.61v9.23l8,4.61,8-4.61v-9.23l-8-4.61h0Z"/>
        <path class="st7" d="M1239.41,85.91l7.2,4.11v8.22l-7.2,4.11-7.2-4.11v-8.14l7.2-4.19M1239.41,84.99l-8,4.61v9.23l8,4.61,8-4.61v-9.23l-8-4.61h0Z"/>
        <path class="st7" d="M1254.61,85.91l7.2,4.11v8.22l-7.2,4.11-7.2-4.11v-8.14l7.2-4.19M1254.61,84.99l-8,4.61v9.23l8,4.61,8-4.61v-9.23l-8-4.61h0Z"/>
      </g>
      <g>
        <path class="st7" d="M973.29,99.42l7.2,4.11v8.22l-7.2,4.11-7.2-4.11v-8.22l7.2-4.11M973.29,98.41l-8,4.61v9.23l8,4.61,8-4.61v-9.23l-8-4.61h0Z"/>
        <path class="st7" d="M988.5,99.42l7.2,4.11v8.22l-7.2,4.11-7.2-4.11v-8.22l7.2-4.11M988.5,98.41l-8,4.61v9.23l8,4.61,8-4.61v-9.23l-8-4.61h0Z"/>
        <path class="st7" d="M1003.71,99.42l7.2,4.11v8.22l-7.2,4.11-7.2-4.11v-8.22l7.2-4.11M1003.71,98.41l-8,4.61v9.23l8,4.61,8-4.61v-9.23l-8-4.61h0Z"/>
        <path class="st7" d="M1018.91,99.42l7.2,4.11v8.22l-7.2,4.11-7.2-4.11v-8.22l7.2-4.11M1018.91,98.41l-8,4.61v9.23l8,4.61,8-4.61v-9.23l-8-4.61h0Z"/>
        <path class="st7" d="M1034.12,99.42l7.2,4.11v8.22l-7.2,4.11-7.2-4.11v-8.22l7.2-4.11M1034.12,98.41l-8,4.61v9.23l8,4.61,8-4.61v-9.23l-8-4.61h0Z"/>
        <path class="st7" d="M1049.33,99.42l7.2,4.11v8.22l-7.2,4.11-7.2-4.11v-8.22l7.2-4.11M1049.33,98.41l-8,4.61v9.23l8,4.61,8-4.61v-9.23l-8-4.61h0Z"/>
        <path class="st7" d="M1064.53,99.42l7.2,4.11v8.22l-7.2,4.11-7.2-4.11v-8.22l7.2-4.11M1064.53,98.41l-8,4.61v9.23l8,4.61,8-4.61v-9.23l-8-4.61h0Z"/>
        <path class="st7" d="M1079.74,99.42l7.2,4.11v8.22l-7.2,4.11-7.2-4.11v-8.22l7.2-4.11M1079.74,98.41l-8,4.61v9.23l8,4.61,8-4.61v-9.23l-8-4.61h0Z"/>
        <path class="st7" d="M1094.94,99.42l7.2,4.11v8.22l-7.2,4.11-7.2-4.11v-8.22l7.2-4.11M1094.94,98.41l-8,4.61v9.23l8,4.61,8-4.61v-9.23l-8-4.61h0Z"/>
        <path class="st7" d="M1110.15,99.42l7.2,4.11v8.22l-7.2,4.11-7.2-4.11v-8.22l7.2-4.11M1110.15,98.41l-8,4.61v9.23l8,4.61,8-4.61v-9.23l-8-4.61h0Z"/>
        <path class="st7" d="M1125.36,99.42l7.2,4.11v8.22l-7.2,4.11-7.2-4.11v-8.22l7.2-4.11M1125.36,98.41l-8,4.61v9.23l8,4.61,8-4.61v-9.23l-8-4.61h0Z"/>
        <path class="st7" d="M1140.56,99.42l7.2,4.11v8.22l-7.2,4.11-7.2-4.11v-8.22l7.2-4.11M1140.56,98.41l-8,4.61v9.23l8,4.61,8-4.61v-9.23l-8-4.61h0Z"/>
        <path class="st7" d="M1155.77,99.42l7.2,4.11v8.22l-7.2,4.11-7.2-4.11v-8.22l7.2-4.11M1155.77,98.41l-8,4.61v9.23l8,4.61,8-4.61v-9.23l-8-4.61h0Z"/>
        <path class="st7" d="M1170.98,99.42l7.2,4.11v8.22l-7.2,4.11-7.2-4.11v-8.22l7.2-4.11M1170.98,98.41l-8,4.61v9.23l8,4.61,8-4.61v-9.23l-8-4.61h0Z"/>
        <path class="st7" d="M1186.18,99.42l7.2,4.11v8.22l-7.2,4.11-7.2-4.11v-8.22l7.2-4.11M1186.18,98.41l-8,4.61v9.23l8,4.61,8-4.61v-9.23l-8-4.61h0Z"/>
        <path class="st7" d="M1201.39,99.42l7.2,4.11v8.22l-7.2,4.11-7.2-4.11v-8.22l7.2-4.11M1201.39,98.41l-8,4.61v9.23l8,4.61,8-4.61v-9.23l-8-4.61h0Z"/>
        <path class="st7" d="M1216.6,99.42l7.2,4.11v8.22l-7.2,4.11-7.2-4.11v-8.22l7.2-4.11M1216.6,98.41l-8,4.61v9.23l8,4.61,8-4.61v-9.23l-8-4.61h0Z"/>
        <path class="st7" d="M1231.8,99.42l7.2,4.11v8.22l-7.2,4.11-7.2-4.11v-8.22l7.2-4.11M1231.8,98.41l-8,4.61v9.23l8,4.61,8-4.61v-9.23l-8-4.61h0Z"/>
        <path class="st7" d="M1247.01,99.42l7.2,4.11v8.22l-7.2,4.11-7.2-4.11v-8.22l7.2-4.11M1247.01,98.41l-8,4.61v9.23l8,4.61,8-4.61v-9.23l-8-4.61h0Z"/>
        <path class="st7" d="M1262.22,99.42l7.2,4.11v8.22l-7.2,4.11-7.2-4.11v-8.22l7.2-4.11M1262.22,98.41l-8,4.61v9.23l8,4.61,8-4.61v-9.23l-8-4.61h0Z"/>
      </g>
      <polyline class="st1" points="957.69 117.25 957.69 0 1267.31 0 1267.31 117.25"/>
    </g>
    <polyline class="st1" points="957.69 117.25 957.69 0 1267.31 0 1267.31 117.25"/>
  </g>
  <g>
    <g>
      <polygon class="st13" points="1418 58.17 1437 97.99 1718 97.99 1737 58.17 1418 58.17"/>
      <g>
        <rect class="st6" x="1437" y="13.99" width="281" height="84"/>
        <path class="st11" d="M1568.1,39.75c1.8.8,3,1.89,3.2,1.99-.1-.5-.5-2.68-.7-4.07,1.1.7,3.5,2.39,4.3,2.98.3-.99,1.5-4.27,1.5-4.27,0,0,2,3.28,2.4,3.88.4-.4,2.9-3.18,3.5-3.88.1,1.59.3,3.78.3,4.17.1-.2,1.1-1.49,2.6-2.68-.7,1.29-1,3.18-1.2,4.67-1.5-.4-3.2-.7-4.9-.7-3.2,0-6.3.89-8.9,2.29-.4-1.39-1.1-3.18-2.1-4.37ZM1592.8,67.88l-1.4-1.59c-.4,4.27-2.5,7.85-6.3,10.34l-.6-2.29c-3.3,2.39-8.8,3.88-13.6,1.19.6-2.98,1.1-6.06,0-9.74-2.7,4.07-5,5.67-5,5.67-1.8-2.98-1.6-9.04-1.1-10.73l-3,.89c0-1.99,1.5-6.26,3.6-8.75l-1.9-.3h0c1.3-2.58,3.2-4.77,5.5-6.46h0c-.7,1.09-.7,3.78,1.3,4.77-.9-1.49-1-3.38-.1-4.37.9-.99,2.4-.6,3.4.1-.3-.8-1.1-1.89-2.4-1.99h0c2.4-1.19,5.1-1.89,8-1.89.5,0,1.1,0,1.6.1h0c.8.3,2.1,1.49,2.6,2.19,0,0,0-.89-.4-1.89,3.1.8,4.6,1.99,5.2,2.58.1,1.29.5,2.19,1.1,3.38-1-1.09-3.5-2.98-4.8-3.38,0,0-.1,1.19-.5,1.69-2.4-1.69-3.6-2.19-3.6-2.19-2.6.4-4.3,1.39-5.3,2.19l.8.7c-1.6.5-2.6,1.89-2.6,1.89l1.4.2s-.1,1.69,1.9,2.68c1.8.89,4.3-.2,6.8.8-1.6-1.79-2.7-2.58-2.7-2.58,0,0-.6-.1-1.1-.1-.6,0-1.4.1-2.3-.2-.4-.2-.9-.5-1.3-.7,0,0,1.1-1.09,2.7-1.39,0,0,1.5.4,2.6,1.29.8-.8,1.6-.7,1.6-.7,0,0-.8.7-.6,1.59,1.2.99,2.4,2.48,2.4,2.48,1.3-.7,4.1-.5,4.6.1-.7-.89-1.8-1.69-2.6-2.39-.1-.4-1-1.59-1.1-1.69,0,0,.8.3,1.6.89.2-.3.6-.6,1.2-.8.6.5.7,1.19.6,1.29-.3.3-.5.4-.5.4l1.4,1.49.1-1.09c3.3,4.67,5,9.84,2.8,16.3ZM1586.9,58.34v-2.29s-1-.3-2.1-1.19c-2.2.3-4.9,2.58-4.9,2.58,0,0,.9,1.69,1.9,3.58,1.7.1,4.3-2.09,5.1-2.68ZM1589.1,62.51s-.2-.99-.9-1.79h-1.7s-2.3,1.99-3.7,1.99c0,0,.8,1.49,1.2,2.19.8-.2,2.2-.8,2.7-1.39,0,0,.4,1.19.3,2.58.7-.5,1.8-1.69,2.1-3.58ZM1589.8,54.96c-.9.7-1.6,1.09-1.6,1.09v2.29c.6.7,1.2,1.29,1.7,2.29.9-1.49.7-3.78-.1-5.67ZM1469,65.1v-19.48h6.2c4,0,7.1,2.39,7.1,6.46s-3,6.56-7.1,6.56h-2.4v6.36l-3.8.1h0ZM1472.8,55.06h2.2c1.9,0,3.3-1.09,3.3-2.98s-1.4-2.88-3.3-2.88h-2.2v5.86h0ZM1526.7,52.28h3.6v12.82h-3.6v-12.82ZM1528.6,50.59c-1.3,0-2.2-.99-2.2-2.19,0-1.29,1-2.19,2.2-2.19s2.2.99,2.2,2.19-1,2.19-2.2,2.19M1521.4,57.54c0-1.39-.8-2.29-2-2.29-1.4,0-2.1.89-2.1,2.29v7.55h-3.6v-7.55c0-1.39-.8-2.29-2-2.29-1.4,0-2.1.89-2.1,2.29v7.55h-3.6v-12.82h3.1l.4,1.69s.8-1.99,3.2-1.99c1.5,0,2.7.6,3.6,1.89l.1.1.1-.1c1.3-1.79,2.8-1.89,3.8-1.89,2.7,0,4.6,2.09,4.6,4.97v8.15h-3.6l.1-7.55h0ZM1546.3,65.1v-12.82h3.1l.4,1.89c.6-1.19,1.7-1.99,3.3-1.99.3,0,.7,0,1,.1v3.38c-.4-.1-.8-.1-1.3-.1-1.7,0-2.9,1.09-2.9,3.08v6.46h-3.6ZM1483.5,65.1v-12.82h3.1l.4,1.89c.6-1.19,1.7-1.99,3.3-1.99.3,0,.7,0,1,.1v3.38c-.4-.1-.8-.1-1.3-.1-1.7,0-2.9,1.09-2.9,3.08v6.46h-3.6ZM1538.6,65.4c-4,0-6.9-2.68-6.9-6.66,0-3.58,2.6-6.76,6.8-6.76,3.1,0,6.3,2.39,6.3,6.66,0,.3,0,.8-.1,1.29h-9.4c.3,1.39,1.6,2.39,3.2,2.39,1.4,0,2.5-.5,3.5-1.49l2.2,2.19c-1.4,1.59-3.4,2.39-5.6,2.39M1538.4,55.06c-1.5,0-2.7.89-3,2.29h6c-.3-1.39-1.5-2.29-3-2.29M1498.4,65.4c-4,0-6.9-2.68-6.9-6.66,0-3.58,2.6-6.76,6.8-6.76,3.1,0,6.3,2.39,6.3,6.66,0,.3,0,.8-.1,1.29h-9.3c.3,1.39,1.6,2.39,3.2,2.39,1.4,0,2.5-.5,3.5-1.49l2.2,2.19c-1.5,1.59-3.5,2.39-5.7,2.39M1498.2,55.06c-1.5,0-2.7.89-3,2.29h6c-.3-1.39-1.5-2.29-3-2.29M1665.8,65.49c2.8,0,6.3-1.49,6.3-6.26v-6.86h-3.6v6.56c0,2.09-1.2,3.18-2.7,3.18-1.7,0-2.7-.99-2.7-3.18v-6.56h-3.6v6.86c0,4.67,3.5,6.26,6.3,6.26M1635.2,65.49c-3.4,0-6.4-3.08-6.4-6.76s3-6.56,6.4-6.56c1.9,0,3.2.7,4,1.89l.4-1.69h3.1v12.82h-3.1l-.4-1.59c-.8,1.09-2.3,1.89-4,1.89M1635.9,55.36c-1.9,0-3.4,1.39-3.4,3.38s1.4,3.38,3.4,3.38,3.3-1.49,3.3-3.38c0-1.99-1.4-3.38-3.3-3.38M1613.6,65.2v-3.58h-8.3v-15.9h-3.8v19.48h12.1ZM1621.3,65.49c-4,0-6.9-2.68-6.9-6.66,0-3.58,2.6-6.76,6.8-6.76,3.1,0,6.3,2.39,6.3,6.66,0,.3,0,.8-.1,1.29h-9.4c.3,1.39,1.6,2.39,3.2,2.39,1.4,0,2.5-.5,3.5-1.49l2.2,2.19c-1.4,1.49-3.4,2.39-5.6,2.39M1621.1,55.06c-1.5,0-2.7.89-3,2.29h6c-.3-1.29-1.5-2.29-3-2.29M1680.3,65.49c-4,0-6.9-2.68-6.9-6.66,0-3.58,2.6-6.76,6.8-6.76,3.1,0,6.3,2.39,6.3,6.66,0,.3,0,.8-.1,1.29h-9.4c.3,1.39,1.6,2.39,3.2,2.39,1.4,0,2.5-.5,3.5-1.49l2.2,2.19c-1.4,1.49-3.5,2.39-5.6,2.39M1680.1,55.06c-1.5,0-2.7.89-3,2.29h6c-.4-1.29-1.6-2.29-3-2.29M1651.1,55.36c-1.9,0-3.4,1.39-3.4,3.38s1.5,3.38,3.4,3.38,3.4-1.49,3.4-3.38c0-1.99-1.5-3.38-3.4-3.38M1654.3,53.97l.4-1.59h3.1v12.22c0,2.39-.7,4.07-2.3,5.27-1.2.89-2.8,1.59-4.8,1.59-2.7,0-4.6-.89-6.2-2.39l2-2.68c1,.89,2.3,1.69,3.9,1.69,2.6,0,3.8-1.29,3.8-3.18v-.89c-1.1,1.09-2.3,1.49-3.7,1.49-3.7,0-6.5-2.98-6.5-6.76s3-6.56,6.6-6.56c1.5,0,2.9.7,3.7,1.79"/>
        <g>
          <path d="M1525.4,21.58c-2.12,1.12-3.64,2.92-4.36,5.12-.6,1.76-.6,2.12-.04,3.8,1.48,4.36,5.68,6.56,9.92,5.24,1.68-.52,2.52-1.08,3.64-2.48,1.36-1.68,1.48-2,1.48-4.44,0-1.92-.24-2.96-.8-3.84-2.44-3.8-6.44-5.2-9.84-3.4ZM1531.24,25.38c1.08.88,1.2,1.24,1.2,3.2s-.12,2.32-1.2,3.2c-1.44,1.16-4,1.32-5.2.28-.64-.56-1.44-1.8-2.04-3.28-.2-.44,1.24-3,2.04-3.68,1.2-1.04,3.76-.88,5.2.28Z"/>
          <path d="M1497.35,38.26c-.64.4-1.12.92-1.12,1.16s-.28.68-.6.96c-1.4,1.16-.4,4.16,1.96,6.04,1.08.84,1.32.88,8.88.68,7.28-.2,7.76-.16,7.76.52,0,.4-.24.88-.48,1.04-.64.4-3.96,4.04-6.12,6.68-.88,1.08-1.88,2.24-2.2,2.6-.36.36-1.28,1.44-2.08,2.44s-2.16,2.6-3.04,3.56c-2.76,3.08-2.72,6.52.2,8.56.92.68,1.72,1.36,1.72,1.52s-.68,1-1.56,1.84c-3.16,3.16-9.24,10.76-9.68,12.12-.6,2.08.28,4.28,2.4,5.92,2.76,2.08,5.04,1.64,7.84-1.48.64-.76,1.4-1.56,1.6-1.8.24-.24,1.84-2.24,3.6-4.44s3.32-4.08,3.44-4.2c.24-.2,9.4-10.92,12.16-14.16.88-1.08,1.88-2.36,2.2-2.88.76-1.24,1.28-1.2,2.88.24,2.6,2.36,4.04,1.48,10.12-6.2.84-1.08,1.92-2.36,2.32-2.8,1.36-1.48,3.48-4.92,3.48-5.72,0-.4-.52-1.48-1.12-2.32-1.52-2.08-8.64-9-10-9.72-.8-.44-4.48-.6-17.24-.72-15.08-.16-16.32-.12-17.32.56ZM1534.8,45.78c2.56,2.52,4.64,4.72,4.64,4.92,0,.16-.56.92-1.24,1.68-.64.76-2.04,2.48-3.04,3.8-3.04,3.92-5.44,6.6-5.88,6.6-.52,0-1.84-1.24-1.84-1.76,0-.24.68-1.16,1.52-2.04,2.6-2.8,5.52-6.36,5.76-7.04.32-.8-.68-2.36-1.52-2.36-.68,0-1.44.76-3.36,3.2-.72,1-1.92,2.44-2.6,3.2-.64.8-1.92,2.32-2.8,3.36-1.64,2-3.84,4.64-5.76,6.88-.56.72-2.64,3.2-4.64,5.6-1.96,2.36-5.2,6.24-7.2,8.56-1.96,2.36-4.32,5.16-5.2,6.24-3.44,4.12-4.28,4.96-5.24,4.96s-2.16-1.32-2.16-2.4c0-.36.52-1.24,1.16-1.96s1.84-2.12,2.68-3.16c.88-1.04,2.12-2.48,2.76-3.28,1.64-1.88,4.12-4.96,5.52-6.76.6-.8,1.8-2.16,2.6-3.04.84-.88,2.12-2.4,2.88-3.4s2.08-2.56,2.96-3.52c2.2-2.32,2.4-2.8,1.88-3.92-.28-.64-.76-.96-1.4-.96-.92,0-1.76.84-6.24,6.6-1.88,2.4-3.52,4.12-4.28,4.56-1.16.6-2.48.08-2.76-1.04-.32-1.28.04-1.96,2.52-4.76,2.12-2.44,8.68-10.12,11.52-13.52.88-1.08,2.52-2.92,3.6-4.16,1.12-1.2,2-2.4,2-2.64,0-.32-2.96-.4-10.4-.32-5.72.08-10.88.04-11.48-.12-.92-.24-1.12-.52-1.12-1.44v-1.16h31.53l4.64,4.6Z"/>
          <path d="M1576.85,38.74c-2.88.72-5.24,2.84-6.52,5.76-1.12,2.64-.28,7.52,1.64,9.48,2.08,2.12,3.88,2.8,7.28,2.8s5.28-.72,7.12-2.8c1.36-1.48,1.24-2.04-.64-2.92-1.76-.84-2.44-.84-3.12-.04-.28.32-1.24,1-2.12,1.44-1.52.76-1.64.8-2.8.12-2.56-1.48-3.44-2.6-3.44-4.52,0-4.48,4.96-6.68,8.08-3.56,1,1,1.16,1.04,2.56.52.84-.28,1.72-.84,2.04-1.28.44-.68.36-.92-.52-1.88-2.4-2.6-6.4-3.92-9.56-3.12Z"/>
          <path d="M1595.5,38.66c-1.24.24-3.64,1.76-4.64,2.96-3.36,4-3.16,9.44.48,12.8,1.96,1.84,3.44,2.36,6.72,2.36s5.04-.68,6.8-2.56c1.2-1.28,1.24-1.88.32-2.76-1.28-1.12-2.88-1.28-3.84-.36-.48.44-1.44,1.08-2.16,1.44-1.2.6-1.4.6-2.8-.04-2.96-1.4-4.16-3.72-3.16-6.16,1.48-3.56,5.24-4.36,8.08-1.76,1.16,1.08,1.6,1.2,1.96.6.12-.24.6-.4,1.04-.4s.96-.44,1.24-1c.4-.92.32-1.16-.88-2.4-.76-.76-1.52-1.4-1.76-1.4-.2,0-.68-.24-1-.56-.68-.6-4.8-1.08-6.4-.76Z"/>
          <path d="M1551.73,39.06c-.16.12-.28,2.96-.28,6.28,0,6.96.32,7.92,3.16,10.12,1.6,1.24,1.92,1.32,4.88,1.32,3.36,0,4.88-.52,6.64-2.16.52-.48.92-1.24.92-1.72s.16-.96.36-1.08.36-2.36.4-4.92c.04-2.6.12-5.44.16-6.32l.08-1.6-2.28-.12c-1.68-.08-2.32.04-2.36.4-.04.28,0,2.8.04,5.56.04,2.8-.04,5.44-.16,5.88-.28.76-2.64,2.48-3.48,2.48-.2,0-1.08-.44-1.96-1l-1.6-1v-12.4h-2.12c-1.2,0-2.28.12-2.4.28Z"/>
          <path d="M1607.9,47.74l.04,9.04h13.12v-2.16c0-1.2-.12-2.28-.32-2.4-.16-.08-1.88,0-3.84.24-2.4.24-3.68.24-3.96-.04-.24-.24-.44-3.04-.44-6.92l-.04-6.52-2.32-.12-2.28-.12.04,9Z"/>
          <path d="M1575.25,60.59c-5.68,1.28-9.4,4.96-9.4,9.28,0,8.88,11.08,13.2,16.52,6.4,2.28-2.8,2.76-5.24,1.8-8.96-.6-2.16-3.48-5.44-5.12-5.8-.56-.16-1.52-.4-2.2-.6-.64-.24-1.36-.36-1.6-.32ZM1577.53,65.91c3.76,2.48,3.6,6.8-.32,8.68-1.96.92-3.68.52-5.36-1.2-1.12-1.16-1.32-1.64-1.32-3.16.08-3.84,4-6.28,7-4.32Z"/>
          <path d="M1592.38,61.35c-2.08.76-4.44,2.96-5.36,4.96-.68,1.48-.8,2.36-.68,4.48.28,3.96,1.8,6.2,5.32,8,5.72,2.88,13.4-2.12,13.4-8.76,0-1.68-1.64-5.12-3.2-6.72-2.12-2.16-6.44-3.08-9.48-1.96ZM1597.9,66.15c.76.52,1.72,1.68,2.12,2.52.68,1.48.68,1.68,0,3.16-.96,2.2-2.28,3.12-4.64,3.12-1.68,0-2.16-.2-3.24-1.28-1.12-1.16-1.28-1.56-1.28-3.52,0-2.12.08-2.32,1.6-3.6,1.92-1.64,3.44-1.76,5.44-.4Z"/>
          <path d="M1551.73,61.47c-.16.12-.28,4.08-.28,8.72,0,9.56,0,9.52,2.88,9.32l1.72-.12.2-3.2.2-3.2h6.8v-4l-2.8-.08c-1.52,0-3.12-.08-3.52-.08-.6-.04-.72-.32-.6-1.56l.12-1.48,3.72-.08c2.08,0,3.96-.24,4.24-.48.32-.28.64-1,.72-1.68.32-2.16-.24-2.36-7.04-2.36-3.36,0-6.24.12-6.36.28Z"/>
          <path d="M1605.5,61.71c-.56.56-.04,3.2.68,3.8.44.32,1.24.4,2.28.24,2.64-.36,2.88.2,2.6,6.84-.12,3.08-.08,5.92.08,6.28.24.52.84.72,2.12.72s1.88-.2,2.12-.72c.16-.36.2-3.2.08-6.28s-.08-5.88.08-6.24c.44-.96,1.4-1.2,2.52-.68.76.32,1.24.32,2.04,0,.88-.44,1-.68.88-2.32l-.12-1.88-7.48-.08c-4.36-.04-7.64.08-7.88.32Z"/>
          <path d="M1623.31,61.67c-.24.16-.48.8-.48,1.4-.64,14.2-.64,15.64-.12,15.96.32.16,2.76.36,5.48.4,4.04.08,5.2-.04,6.56-.64,3.28-1.48,4.2-5.28,1.88-7.88l-1.2-1.4.8-.76c1.68-1.56,1.56-3.96-.28-5.96l-1.08-1.16-5.56-.12c-3.04-.08-5.72,0-6,.16ZM1632.67,66.23c.52.96.48,1.08-.4,1.8-2,1.48-5.2.76-5.2-1.2,0-1.52.2-1.64,2.8-1.64,2.04,0,2.32.12,2.8,1.04ZM1632.99,72.07c.28.28.48,1,.48,1.6,0,1.32-.84,1.64-4.04,1.44-2.04-.12-2.16-.2-2.28-1.24-.24-2.04.08-2.28,2.84-2.28,1.44,0,2.72.2,3,.48Z"/>
          <path d="M1645.55,61.67c-.28.28-.48.72-.48,1s-.24,1.08-.56,1.8c-.52,1.24-1,2.44-2.52,6.52-.76,1.96-1.64,4.04-2.36,5.52-.32.64-.56,1.6-.56,2.12,0,.96.12,1,2.08.88,1.68-.08,2.2-.28,2.52-.96.92-1.88,1.28-2.04,4.4-2,3.04.08,3.56.28,4.36,1.92.4.76.76.92,2.44.92,1.8,0,2-.08,2.12-.96.08-.52-.12-1.52-.44-2.2-.92-1.96-1.72-3.88-2.48-5.84-.36-1-.92-2.32-1.24-2.92-.32-.64-.56-1.44-.56-1.8s-.28-1.04-.6-1.44c-.32-.44-.6-1.2-.6-1.68s-.28-1-.64-1.12c-1.08-.4-4.4-.24-4.88.24ZM1649.31,69.39c.32.72.56,1.76.48,2.28-.08.76-.4.96-1.64,1.04-1.84.16-2.24-.56-1.48-2.68.96-2.8,1.56-2.92,2.64-.64Z"/>
          <path d="M1659.16,61.51c-.4.28-.44,1.52-.2,5.72.16,2.96.24,6.6.2,8.08-.16,4.32-.56,4.08,6.12,4.16,5.44.08,5.8.04,6.2-.72.24-.44.4-1.48.32-2.28l-.12-1.48-4.12-.12-4.16-.12.12-6.28c.08-3.44,0-6.52-.16-6.8-.36-.52-3.4-.64-4.2-.16Z"/>
          <path d="M1673.8,61.47c-.12.16-.08,4.28.04,9.08l.24,8.76,5.96.12c3.96.08,6.16,0,6.52-.28.28-.28.52-1.28.52-2.4,0-1.76-.08-1.96-.88-2-.52,0-2.44-.04-4.32-.08l-3.4-.08v-13.2l-2.28-.12c-1.24-.08-2.32.04-2.4.2Z"/>
          <path d="M1515.64,80.67c-2.68.44-5.8,4.24-5.8,7.16,0,2.64,1.84,5.28,4.68,6.72,1.68.84,3.4.8,5.24-.12,3.6-1.84,5.04-4.8,4.24-8.8-.28-1.28-3.48-4.84-4.36-4.84-.28,0-1-.08-1.64-.16s-1.68-.08-2.36.04ZM1519.96,85.31c1.12,1.28.92,3.72-.48,5.12-1.68,1.68-3.36,1.6-5.08-.28-1.56-1.64-1.72-2.96-.52-4.48,1.64-2.12,4.32-2.28,6.08-.36Z"/>
        </g>
      </g>
    </g>
    <polygon class="st13" points="490 58.17 509 97.99 790 97.99 809 58.17 490 58.17"/>
    <g>
      <rect class="st6" x="509" y="13.99" width="281" height="84"/>
      <path class="st11" d="M640.1,39.39c1.79.8,2.99,1.9,3.19,2-.1-.5-.5-2.7-.7-4.1,1.1.7,3.49,2.4,4.28,3,.3-1,1.49-4.3,1.49-4.3,0,0,1.99,3.3,2.39,3.9.4-.4,2.89-3.2,3.49-3.9.1,1.6.3,3.8.3,4.2.1-.2,1.1-1.5,2.59-2.7-.7,1.3-1,3.2-1.2,4.7-1.49-.4-3.19-.7-4.88-.7-3.19,0-6.28.9-8.87,2.3-.4-1.4-1.1-3.2-2.09-4.4ZM664.71,67.69l-1.4-1.6c-.4,4.3-2.49,7.9-6.28,10.4l-.6-2.3c-3.29,2.4-8.77,3.9-13.55,1.2.6-3,1.1-6.1,0-9.8-2.69,4.1-4.98,5.7-4.98,5.7-1.79-3-1.59-9.1-1.1-10.8l-2.99.9c0-2,1.49-6.3,3.59-8.8l-1.89-.3h0c1.3-2.6,3.19-4.8,5.48-6.5h0c-.7,1.1-.7,3.8,1.3,4.8-.9-1.5-1-3.4-.1-4.4.9-1,2.39-.6,3.39.1-.3-.8-1.1-1.9-2.39-2h0c2.39-1.2,5.08-1.9,7.97-1.9.5,0,1.1,0,1.59.1h0c.8.3,2.09,1.5,2.59,2.2,0,0,0-.9-.4-1.9,3.09.8,4.58,2,5.18,2.6.1,1.3.5,2.2,1.1,3.4-1-1.1-3.49-3-4.78-3.4,0,0-.1,1.2-.5,1.7-2.39-1.7-3.59-2.2-3.59-2.2-2.59.4-4.28,1.4-5.28,2.2l.8.7c-1.59.5-2.59,1.9-2.59,1.9l1.4.2s-.1,1.7,1.89,2.7c1.79.9,4.28-.2,6.78.8-1.59-1.8-2.69-2.6-2.69-2.6,0,0-.6-.1-1.1-.1-.6,0-1.4.1-2.29-.2-.4-.2-.9-.5-1.3-.7,0,0,1.1-1.1,2.69-1.4,0,0,1.49.4,2.59,1.3.8-.8,1.59-.7,1.59-.7,0,0-.8.7-.6,1.6,1.2,1,2.39,2.5,2.39,2.5,1.3-.7,4.09-.5,4.58.1-.7-.9-1.79-1.7-2.59-2.4-.1-.4-1-1.6-1.1-1.7,0,0,.8.3,1.59.9.2-.3.6-.6,1.2-.8.6.5.7,1.2.6,1.3-.3.3-.5.4-.5.4l1.4,1.5.1-1.1c3.29,4.7,4.98,9.9,2.79,16.4ZM658.84,58.09v-2.3s-1-.3-2.09-1.2c-2.19.3-4.88,2.6-4.88,2.6,0,0,.9,1.7,1.89,3.6,1.69.1,4.28-2.1,5.08-2.7ZM661.03,62.29s-.2-1-.9-1.8h-1.69s-2.29,2-3.69,2c0,0,.8,1.5,1.2,2.2.8-.2,2.19-.8,2.69-1.4,0,0,.4,1.2.3,2.6.7-.5,1.79-1.7,2.09-3.6ZM661.72,54.69c-.9.7-1.59,1.1-1.59,1.1v2.3c.6.7,1.2,1.3,1.69,2.3.9-1.5.7-3.8-.1-5.7ZM541.35,64.89v-19.6h6.18c3.99,0,7.07,2.4,7.07,6.5s-2.99,6.6-7.07,6.6h-2.39v6.4l-3.79.1h0ZM545.14,54.79h2.19c1.89,0,3.29-1.1,3.29-3s-1.4-2.9-3.29-2.9h-2.19v5.9h0ZM598.85,51.99h3.59v12.9h-3.59v-12.9ZM600.74,50.29c-1.3,0-2.19-1-2.19-2.2,0-1.3,1-2.2,2.19-2.2s2.19,1,2.19,2.2-1,2.2-2.19,2.2M593.57,57.29c0-1.4-.8-2.3-1.99-2.3-1.4,0-2.09.9-2.09,2.3v7.6h-3.59v-7.6c0-1.4-.8-2.3-1.99-2.3-1.4,0-2.09.9-2.09,2.3v7.6h-3.59v-12.9h3.09l.4,1.7s.8-2,3.19-2c1.49,0,2.69.6,3.59,1.9l.1.1.1-.1c1.3-1.8,2.79-1.9,3.79-1.9,2.69,0,4.58,2.1,4.58,5v8.2h-3.59l.1-7.6h0ZM618.38,64.89v-12.9h3.09l.4,1.9c.6-1.2,1.69-2,3.29-2,.3,0,.7,0,1,.1v3.4c-.4-.1-.8-.1-1.3-.1-1.69,0-2.89,1.1-2.89,3.1v6.5h-3.59ZM555.8,64.89v-12.9h3.09l.4,1.9c.6-1.2,1.69-2,3.29-2,.3,0,.7,0,1,.1v3.4c-.4-.1-.8-.1-1.3-.1-1.69,0-2.89,1.1-2.89,3.1v6.5h-3.59ZM610.71,65.19c-3.99,0-6.88-2.7-6.88-6.7,0-3.6,2.59-6.8,6.78-6.8,3.09,0,6.28,2.4,6.28,6.7,0,.3,0,.8-.1,1.3h-9.37c.3,1.4,1.59,2.4,3.19,2.4,1.4,0,2.49-.5,3.49-1.5l2.19,2.2c-1.4,1.6-3.39,2.4-5.58,2.4M610.51,54.79c-1.49,0-2.69.9-2.99,2.3h5.98c-.3-1.4-1.49-2.3-2.99-2.3M570.65,65.19c-3.99,0-6.88-2.7-6.88-6.7,0-3.6,2.59-6.8,6.78-6.8,3.09,0,6.28,2.4,6.28,6.7,0,.3,0,.8-.1,1.3h-9.27c.3,1.4,1.59,2.4,3.19,2.4,1.4,0,2.49-.5,3.49-1.5l2.19,2.2c-1.49,1.6-3.49,2.4-5.68,2.4M570.45,54.79c-1.49,0-2.69.9-2.99,2.3h5.98c-.3-1.4-1.49-2.3-2.99-2.3M737.45,65.29c2.79,0,6.28-1.5,6.28-6.3v-6.9h-3.59v6.6c0,2.1-1.2,3.2-2.69,3.2-1.69,0-2.69-1-2.69-3.2v-6.6h-3.59v6.9c0,4.7,3.49,6.3,6.28,6.3M706.96,65.29c-3.39,0-6.38-3.1-6.38-6.8s2.99-6.6,6.38-6.6c1.89,0,3.19.7,3.99,1.9l.4-1.7h3.09v12.9h-3.09l-.4-1.6c-.8,1.1-2.29,1.9-3.99,1.9M707.66,55.09c-1.89,0-3.39,1.4-3.39,3.4s1.4,3.4,3.39,3.4,3.29-1.5,3.29-3.4c0-2-1.4-3.4-3.29-3.4M685.44,64.99v-3.6h-8.27v-16h-3.79v19.6h12.06ZM693.11,65.29c-3.99,0-6.88-2.7-6.88-6.7,0-3.6,2.59-6.8,6.78-6.8,3.09,0,6.28,2.4,6.28,6.7,0,.3,0,.8-.1,1.3h-9.37c.3,1.4,1.59,2.4,3.19,2.4,1.4,0,2.49-.5,3.49-1.5l2.19,2.2c-1.4,1.5-3.39,2.4-5.58,2.4M692.91,54.79c-1.49,0-2.69.9-2.99,2.3h5.98c-.3-1.3-1.49-2.3-2.99-2.3M751.9,65.29c-3.99,0-6.88-2.7-6.88-6.7,0-3.6,2.59-6.8,6.78-6.8,3.09,0,6.28,2.4,6.28,6.7,0,.3,0,.8-.1,1.3h-9.37c.3,1.4,1.59,2.4,3.19,2.4,1.4,0,2.49-.5,3.49-1.5l2.19,2.2c-1.4,1.5-3.49,2.4-5.58,2.4M751.7,54.79c-1.49,0-2.69.9-2.99,2.3h5.98c-.4-1.3-1.59-2.3-2.99-2.3M722.81,55.09c-1.89,0-3.39,1.4-3.39,3.4s1.49,3.4,3.39,3.4,3.39-1.5,3.39-3.4c0-2-1.49-3.4-3.39-3.4M726,53.69l.4-1.6h3.09v12.3c0,2.4-.7,4.1-2.29,5.3-1.2.9-2.79,1.6-4.78,1.6-2.69,0-4.58-.9-6.18-2.4l1.99-2.7c1,.9,2.29,1.7,3.89,1.7,2.59,0,3.79-1.3,3.79-3.2v-.9c-1.1,1.1-2.29,1.5-3.69,1.5-3.69,0-6.48-3-6.48-6.8s2.99-6.6,6.58-6.6c1.49,0,2.89.7,3.69,1.8"/>
      <g>
        <path d="M590.87,21.58c-2.12,1.12-3.64,2.92-4.36,5.12-.6,1.76-.6,2.12-.04,3.8,1.48,4.36,5.68,6.56,9.92,5.24,1.68-.52,2.52-1.08,3.64-2.48,1.36-1.68,1.48-2,1.48-4.44,0-1.92-.24-2.96-.8-3.84-2.44-3.8-6.44-5.2-9.84-3.4ZM596.71,25.38c1.08.88,1.2,1.24,1.2,3.2s-.12,2.32-1.2,3.2c-1.44,1.16-4,1.32-5.2.28-.64-.56-1.44-1.8-2.04-3.28-.2-.44,1.24-3,2.04-3.68,1.2-1.04,3.76-.88,5.2.28Z"/>
        <path d="M562.82,38.26c-.64.4-1.12.92-1.12,1.16s-.28.68-.6.96c-1.4,1.16-.4,4.16,1.96,6.04,1.08.84,1.32.88,8.88.68,7.28-.2,7.76-.16,7.76.52,0,.4-.24.88-.48,1.04-.64.4-3.96,4.04-6.12,6.68-.88,1.08-1.88,2.24-2.2,2.6-.36.36-1.28,1.44-2.08,2.44s-2.16,2.6-3.04,3.56c-2.76,3.08-2.72,6.52.2,8.56.92.68,1.72,1.36,1.72,1.52s-.68,1-1.56,1.84c-3.16,3.16-9.24,10.76-9.68,12.12-.6,2.08.28,4.28,2.4,5.92,2.76,2.08,5.04,1.64,7.84-1.48.64-.76,1.4-1.56,1.6-1.8.24-.24,1.84-2.24,3.6-4.44s3.32-4.08,3.44-4.2c.24-.2,9.4-10.92,12.16-14.16.88-1.08,1.88-2.36,2.2-2.88.76-1.24,1.28-1.2,2.88.24,2.6,2.36,4.04,1.48,10.12-6.2.84-1.08,1.92-2.36,2.32-2.8,1.36-1.48,3.48-4.92,3.48-5.72,0-.4-.52-1.48-1.12-2.32-1.52-2.08-8.64-9-10-9.72-.8-.44-4.48-.6-17.24-.72-15.08-.16-16.32-.12-17.32.56ZM600.27,45.78c2.56,2.52,4.64,4.72,4.64,4.92,0,.16-.56.92-1.24,1.68-.64.76-2.04,2.48-3.04,3.8-3.04,3.92-5.44,6.6-5.88,6.6-.52,0-1.84-1.24-1.84-1.76,0-.24.68-1.16,1.52-2.04,2.6-2.8,5.52-6.36,5.76-7.04.32-.8-.68-2.36-1.52-2.36-.68,0-1.44.76-3.36,3.2-.72,1-1.92,2.44-2.6,3.2-.64.8-1.92,2.32-2.8,3.36-1.64,2-3.84,4.64-5.76,6.88-.56.72-2.64,3.2-4.64,5.6-1.96,2.36-5.2,6.24-7.2,8.56-1.96,2.36-4.32,5.16-5.2,6.24-3.44,4.12-4.28,4.96-5.24,4.96s-2.16-1.32-2.16-2.4c0-.36.52-1.24,1.16-1.96s1.84-2.12,2.68-3.16c.88-1.04,2.12-2.48,2.76-3.28,1.64-1.88,4.12-4.96,5.52-6.76.6-.8,1.8-2.16,2.6-3.04.84-.88,2.12-2.4,2.88-3.4s2.08-2.56,2.96-3.52c2.2-2.32,2.4-2.8,1.88-3.92-.28-.64-.76-.96-1.4-.96-.92,0-1.76.84-6.24,6.6-1.88,2.4-3.52,4.12-4.28,4.56-1.16.6-2.48.08-2.76-1.04-.32-1.28.04-1.96,2.52-4.76,2.12-2.44,8.68-10.12,11.52-13.52.88-1.08,2.52-2.92,3.6-4.16,1.12-1.2,2-2.4,2-2.64,0-.32-2.96-.4-10.4-.32-5.72.08-10.88.04-11.48-.12-.92-.24-1.12-.52-1.12-1.44v-1.16h31.53l4.64,4.6Z"/>
        <path d="M642.32,38.74c-2.88.72-5.24,2.84-6.52,5.76-1.12,2.64-.28,7.52,1.64,9.48,2.08,2.12,3.88,2.8,7.28,2.8s5.28-.72,7.12-2.8c1.36-1.48,1.24-2.04-.64-2.92-1.76-.84-2.44-.84-3.12-.04-.28.32-1.24,1-2.12,1.44-1.52.76-1.64.8-2.8.12-2.56-1.48-3.44-2.6-3.44-4.52,0-4.48,4.96-6.68,8.08-3.56,1,1,1.16,1.04,2.56.52.84-.28,1.72-.84,2.04-1.28.44-.68.36-.92-.52-1.88-2.4-2.6-6.4-3.92-9.56-3.12Z"/>
        <path d="M660.97,38.66c-1.24.24-3.64,1.76-4.64,2.96-3.36,4-3.16,9.44.48,12.8,1.96,1.84,3.44,2.36,6.72,2.36s5.04-.68,6.8-2.56c1.2-1.28,1.24-1.88.32-2.76-1.28-1.12-2.88-1.28-3.84-.36-.48.44-1.44,1.08-2.16,1.44-1.2.6-1.4.6-2.8-.04-2.96-1.4-4.16-3.72-3.16-6.16,1.48-3.56,5.24-4.36,8.08-1.76,1.16,1.08,1.6,1.2,1.96.6.12-.24.6-.4,1.04-.4s.96-.44,1.24-1c.4-.92.32-1.16-.88-2.4-.76-.76-1.52-1.4-1.76-1.4-.2,0-.68-.24-1-.56-.68-.6-4.8-1.08-6.4-.76Z"/>
        <path d="M617.2,39.06c-.16.12-.28,2.96-.28,6.28,0,6.96.32,7.92,3.16,10.12,1.6,1.24,1.92,1.32,4.88,1.32,3.36,0,4.88-.52,6.64-2.16.52-.48.92-1.24.92-1.72s.16-.96.36-1.08.36-2.36.4-4.92c.04-2.6.12-5.44.16-6.32l.08-1.6-2.28-.12c-1.68-.08-2.32.04-2.36.4-.04.28,0,2.8.04,5.56.04,2.8-.04,5.44-.16,5.88-.28.76-2.64,2.48-3.48,2.48-.2,0-1.08-.44-1.96-1l-1.6-1v-12.4h-2.12c-1.2,0-2.28.12-2.4.28Z"/>
        <path d="M673.37,47.74l.04,9.04h13.12v-2.16c0-1.2-.12-2.28-.32-2.4-.16-.08-1.88,0-3.84.24-2.4.24-3.68.24-3.96-.04-.24-.24-.44-3.04-.44-6.92l-.04-6.52-2.32-.12-2.28-.12.04,9Z"/>
        <path d="M640.72,60.59c-5.68,1.28-9.4,4.96-9.4,9.28,0,8.88,11.08,13.2,16.52,6.4,2.28-2.8,2.76-5.24,1.8-8.96-.6-2.16-3.48-5.44-5.12-5.8-.56-.16-1.52-.4-2.2-.6-.64-.24-1.36-.36-1.6-.32ZM643,65.91c3.76,2.48,3.6,6.8-.32,8.68-1.96.92-3.68.52-5.36-1.2-1.12-1.16-1.32-1.64-1.32-3.16.08-3.84,4-6.28,7-4.32Z"/>
        <path d="M657.85,61.35c-2.08.76-4.44,2.96-5.36,4.96-.68,1.48-.8,2.36-.68,4.48.28,3.96,1.8,6.2,5.32,8,5.72,2.88,13.4-2.12,13.4-8.76,0-1.68-1.64-5.12-3.2-6.72-2.12-2.16-6.44-3.08-9.48-1.96ZM663.37,66.15c.76.52,1.72,1.68,2.12,2.52.68,1.48.68,1.68,0,3.16-.96,2.2-2.28,3.12-4.64,3.12-1.68,0-2.16-.2-3.24-1.28-1.12-1.16-1.28-1.56-1.28-3.52,0-2.12.08-2.32,1.6-3.6,1.92-1.64,3.44-1.76,5.44-.4Z"/>
        <path d="M617.2,61.47c-.16.12-.28,4.08-.28,8.72,0,9.56,0,9.52,2.88,9.32l1.72-.12.2-3.2.2-3.2h6.8v-4l-2.8-.08c-1.52,0-3.12-.08-3.52-.08-.6-.04-.72-.32-.6-1.56l.12-1.48,3.72-.08c2.08,0,3.96-.24,4.24-.48.32-.28.64-1,.72-1.68.32-2.16-.24-2.36-7.04-2.36-3.36,0-6.24.12-6.36.28Z"/>
        <path d="M670.97,61.71c-.56.56-.04,3.2.68,3.8.44.32,1.24.4,2.28.24,2.64-.36,2.88.2,2.6,6.84-.12,3.08-.08,5.92.08,6.28.24.52.84.72,2.12.72s1.88-.2,2.12-.72c.16-.36.2-3.2.08-6.28s-.08-5.88.08-6.24c.44-.96,1.4-1.2,2.52-.68.76.32,1.24.32,2.04,0,.88-.44,1-.68.88-2.32l-.12-1.88-7.48-.08c-4.36-.04-7.64.08-7.88.32Z"/>
        <path d="M688.78,61.67c-.24.16-.48.8-.48,1.4-.64,14.2-.64,15.64-.12,15.96.32.16,2.76.36,5.48.4,4.04.08,5.2-.04,6.56-.64,3.28-1.48,4.2-5.28,1.88-7.88l-1.2-1.4.8-.76c1.68-1.56,1.56-3.96-.28-5.96l-1.08-1.16-5.56-.12c-3.04-.08-5.72,0-6,.16ZM698.14,66.23c.52.96.48,1.08-.4,1.8-2,1.48-5.2.76-5.2-1.2,0-1.52.2-1.64,2.8-1.64,2.04,0,2.32.12,2.8,1.04ZM698.46,72.07c.28.28.48,1,.48,1.6,0,1.32-.84,1.64-4.04,1.44-2.04-.12-2.16-.2-2.28-1.24-.24-2.04.08-2.28,2.84-2.28,1.44,0,2.72.2,3,.48Z"/>
        <path d="M711.02,61.67c-.28.28-.48.72-.48,1s-.24,1.08-.56,1.8c-.52,1.24-1,2.44-2.52,6.52-.76,1.96-1.64,4.04-2.36,5.52-.32.64-.56,1.6-.56,2.12,0,.96.12,1,2.08.88,1.68-.08,2.2-.28,2.52-.96.92-1.88,1.28-2.04,4.4-2,3.04.08,3.56.28,4.36,1.92.4.76.76.92,2.44.92,1.8,0,2-.08,2.12-.96.08-.52-.12-1.52-.44-2.2-.92-1.96-1.72-3.88-2.48-5.84-.36-1-.92-2.32-1.24-2.92-.32-.64-.56-1.44-.56-1.8s-.28-1.04-.6-1.44c-.32-.44-.6-1.2-.6-1.68s-.28-1-.64-1.12c-1.08-.4-4.4-.24-4.88.24ZM714.78,69.39c.32.72.56,1.76.48,2.28-.08.76-.4.96-1.64,1.04-1.84.16-2.24-.56-1.48-2.68.96-2.8,1.56-2.92,2.64-.64Z"/>
        <path d="M724.63,61.51c-.4.28-.44,1.52-.2,5.72.16,2.96.24,6.6.2,8.08-.16,4.32-.56,4.08,6.12,4.16,5.44.08,5.8.04,6.2-.72.24-.44.4-1.48.32-2.28l-.12-1.48-4.12-.12-4.16-.12.12-6.28c.08-3.44,0-6.52-.16-6.8-.36-.52-3.4-.64-4.2-.16Z"/>
        <path d="M739.27,61.47c-.12.16-.08,4.28.04,9.08l.24,8.76,5.96.12c3.96.08,6.16,0,6.52-.28.28-.28.52-1.28.52-2.4,0-1.76-.08-1.96-.88-2-.52,0-2.44-.04-4.32-.08l-3.4-.08v-13.2l-2.28-.12c-1.24-.08-2.32.04-2.4.2Z"/>
        <path d="M581.11,80.67c-2.68.44-5.8,4.24-5.8,7.16,0,2.64,1.84,5.28,4.68,6.72,1.68.84,3.4.8,5.24-.12,3.6-1.84,5.04-4.8,4.24-8.8-.28-1.28-3.48-4.84-4.36-4.84-.28,0-1-.08-1.64-.16s-1.68-.08-2.36.04ZM585.43,85.31c1.12,1.28.92,3.72-.48,5.12-1.68,1.68-3.36,1.6-5.08-.28-1.56-1.64-1.72-2.96-.52-4.48,1.64-2.12,4.32-2.28,6.08-.36Z"/>
      </g>
    </g>
  </g>
  <g>
    <g>
      <path class="st2" d="M1580.07,117.5l39.93,217.96h-1002.06l35.32-217.93,926.81-.03Z"/>
      <path class="st2" d="M1362.75,117.5l9.75,86.73h-517.82l8.09-86.73h499.99ZM910,336.52c131.05,79.3,268.3,79.3,411.75,0"/>
      <ellipse class="st4" cx="1111.89" cy="264.94" rx="11.26" ry="5.8"/>
    </g>
    <g>
      <rect class="st4" x="134" y="1164.49" width="1959" height="6.87"/>
      <ellipse class="st4" cx="1114.46" cy="1168.13" rx="26.32" ry="22.9"/>
      <ellipse class="st0" cx="1114.3" cy="1175.49" rx="235.7" ry="199.5"/>
    </g>
    <path class="st3" d="M435,132.99c13.4-1.55,21.33-6.22,23.78-14.03M1795,132.64c-7.93-.3-12.98-1.16-15.15-2.56-7.14-4.6-7.59-12.09-7.59-12.09"/>
    <g>
      <polygon class="st5" points="436.15 115 443.2 114.99 -48.77 1789.99 -55.8 1789.99 436.15 115"/>
      <polygon class="st5" points="1786.78 115 1793.66 115 2272.78 1789.99 2265.89 1790 1786.78 115"/>
      <polygon class="st5" points="443.08 115 1788.28 115 1788.28 120.05 441.64 120.05 443.08 115"/>
    </g>
  </g>
</svg>