<?xml version="1.0" encoding="UTF-8"?>
<svg id="Layer_1" xmlns="http://www.w3.org/2000/svg" version="1.1" viewBox="0 0 90 90">
  <!-- Generator: Adobe Illustrator 29.0.1, SVG Export Plug-In . SVG Version: 2.1.0 Build 192)  -->
  <defs>
    <style>
      .st0 {
        fill: #fff;
      }

      .st1 {
        fill: #64c865;
      }
    </style>
  </defs>
  <path d="M90,23.1v.4h0c0,.1-8.2,16.5-8.2,16.5h0v.2h0c0,0,0,0-.2,0s0,0,0,0h-.6l-4.8-2.6-4.5-2.5v49.2c0,.5-.5,1-1,1H20c-.6,0-1-.5-1-1v-49.2l-9.3,5.1h-.6c-.1,0,0,0,0,0h-.2v-.2h0q0-.2,0,0c0,0,0,0,0,0L.1,23.6H.1v-1.1s0-.1.2-.2H.3l19.4-13.3c2.4-1.4,4.9-2.5,7.5-3.2,2.8-.8,5.6-1.2,7.6-1.3h20c2,0,4.8.5,7.6,1.3,2.6.7,5.1,1.8,7.4,3.2l19.5,13.3h0s0,0,0,.2v.6h.6ZM80.4,38.1l7.3-14.7-2.9-2-7.5,15,3.1,1.7ZM75.6,35.5l7.6-15.2-14.1-9.7c-2.1-1.3-4.4-2.3-6.9-2.9-1.8-.5-3.6-.9-5.2-1-.5,6.1-5.7,10.8-12,10.8s-11.5-4.8-11.9-10.8c-1.6.2-3.4.5-5.2,1-2.4.7-4.8,1.7-6.9,3l-14.3,9.8,7.6,15.1,5.4-2.9h.4c.1,0,0,0,0,0h.5s.1,0,.2,0,0,0,.1,0h0v.5c0,.1,0,0,0,0v49.9h48v-49.9h0v-.4h0c0,0,0-.2,0-.3s0,0,.2,0h.5c0,0,0,0,0,0h.4l5.1,2.8h.4ZM55,6.5h-19.9c.4,5,4.7,9,10,9s9.5-4,10-9h0ZM12.4,36.6l-7.5-15-2.7,1.8,7.3,14.7,2.8-1.5h0Z"/>
  <polygon class="st1" points="87.7 23.5 80.4 38.1 77.3 36.5 84.8 21.5 87.7 23.5"/>
  <path class="st1" d="M83.3,20.4h-.2c0-.1-7.6,15.1-7.6,15.1l-5.1-2.8h-.9s-.1,0-.2.1,0,.1,0,.2h0v.5h0v49.9H21v-50.3h0c0-.1,0-.2,0-.2s0,0-.2-.1h-.9l-5.4,2.9-7.6-15.1,14.3-9.8c2.2-1.3,4.5-2.3,6.9-3,1.8-.5,3.6-.9,5.2-1,.5,6.1,5.7,10.8,11.9,10.8s11.5-4.8,12-10.8c1.6.2,3.4.5,5.2,1,2.4.7,4.8,1.7,6.9,2.9l14.1,9.7ZM65,26.5v-5c0-.5-.5-1-1-1h-8c-.5,0-1,.5-1,1v5c0,3.8,3.1,5.6,4.8,6h.4c1.6-.4,4.8-2.2,4.8-6Z"/>
  <path d="M65,21.5v5c0,3.8-3.1,5.6-4.8,6h-.4c-1.6-.4-4.8-2.2-4.8-6v-5c0-.5.5-1,1-1h8c.5,0,1,.5,1,1ZM63,26.5v-4h-6v4c0,2.7,2.2,3.7,3,4,.8-.3,3-1.3,3-4Z"/>
  <path class="st0" d="M63,22.5v4c0,2.7-2.2,3.7-3,4-.8-.3-3-1.3-3-4v-4h6Z"/>
  <path class="st0" d="M35,6.5h19.9c-.4,5-4.7,9-10,9s-9.5-4-10-9h0Z"/>
  <polygon class="st1" points="4.9 21.6 12.4 36.6 9.6 38.1 2.3 23.5 4.9 21.6"/>
</svg>